<?xml version="1.0" encoding="UTF-8" standalone="no"?>
<svg
   xmlns:dc="http://purl.org/dc/elements/1.1/"
   xmlns:cc="http://creativecommons.org/ns#"
   xmlns:rdf="http://www.w3.org/1999/02/22-rdf-syntax-ns#"
   xmlns:svg="http://www.w3.org/2000/svg"
   xmlns="http://www.w3.org/2000/svg"
   viewBox="0 0 1280 380"
   height="380"
   width="1280"
   xml:space="preserve"
   id="svg2"
   version="1.1"><metadata
     id="metadata8"><rdf:RDF><cc:Work
         rdf:about=""><dc:format>image/svg+xml</dc:format><dc:type
           rdf:resource="http://purl.org/dc/dcmitype/StillImage" /></cc:Work></rdf:RDF></metadata><defs
     id="defs6"><clipPath
       id="clipPath20"
       clipPathUnits="userSpaceOnUse"><path
         id="path18"
         d="M 0,0.1200064 H 959.76 V 285.00001 H 0 Z" /></clipPath></defs><g
     transform="matrix(1.3333333,0,0,-1.3333333,0,380)"
     id="g10"><g
       id="g12" /><g
       id="g14"><g
         clip-path="url(#clipPath20)"
         id="g16"><path
           id="path22"
           style="fill:#ffffff;fill-opacity:1;fill-rule:nonzero;stroke:none"
           d="M 0,285 H 959.76 V 0.1200064 H 0 Z" /></g></g><g
       id="g24"><path
         id="path26"
         style="fill:#ffffff;fill-opacity:1;fill-rule:nonzero;stroke:none"
         d="M 0,285 H 960 V 0.1249681 H 0 Z" /><g
         transform="matrix(0.24,0,0,0.24,140.6815,-82.19999)"
         id="g28"><text
           id="text32"
           style="font-variant:normal;font-weight:300;font-size:133.33329773px;font-family:DengXian;-inkscape-font-specification:DengXian-Light;writing-mode:lr-tb;fill:#000000;fill-opacity:1;fill-rule:nonzero;stroke:none"
           transform="matrix(1,0,0,-1,0,1187)"><tspan
             id="tspan30"
             y="0"
             x="0 131.7733 263.5466 395.31992 527.0932 658.86652 790.63983 922.41309 1054.1864 1185.9597 1317.733 1449.5063">请在这里上传待识别图片哦</tspan></text>
</g><g
         transform="matrix(0.24,0,0,0.24,362.3612,-160.92)"
         id="g34"><text
           id="text38"
           style="font-variant:normal;font-weight:normal;font-size:75px;font-family:Calibri;-inkscape-font-specification:Calibri;writing-mode:lr-tb;fill:#000000;fill-opacity:1;fill-rule:nonzero;stroke:none"
           transform="matrix(1,0,0,-1,0,1187)"><tspan
             id="tspan36"
             y="0"
             x="0 46.875 80.699997 120.3 157.8">Hyper</tspan></text>
</g><g
         transform="matrix(0.24,0,0,0.24,405.9612,-160.92)"
         id="g40"><text
           id="text44"
           style="font-variant:normal;font-weight:normal;font-size:75px;font-family:Calibri;-inkscape-font-specification:Calibri;writing-mode:lr-tb;fill:#000000;fill-opacity:1;fill-rule:nonzero;stroke:none"
           transform="matrix(1,0,0,-1,0,1187)"><tspan
             id="tspan42"
             y="0"
             x="0">-</tspan></text>
</g><g
         transform="matrix(0.24,0,0,0.24,411.4612,-160.92)"
         id="g46"><text
           id="text50"
           style="font-variant:normal;font-weight:normal;font-size:75px;font-family:Calibri;-inkscape-font-specification:Calibri;writing-mode:lr-tb;fill:#000000;fill-opacity:1;fill-rule:nonzero;stroke:none"
           transform="matrix(1,0,0,-1,0,1187)"><tspan
             id="tspan48"
             y="0"
             x="0 30.6075 66.540001 106.1475 123.33">Table</tspan></text>
</g><g
         transform="matrix(0.24,0,0,0.24,450.0562,-160.92)"
         id="g52"><text
           id="text56"
           style="font-variant:normal;font-weight:normal;font-size:75px;font-family:Calibri;-inkscape-font-specification:Calibri;writing-mode:lr-tb;fill:#000000;fill-opacity:1;fill-rule:nonzero;stroke:none"
           transform="matrix(1,0,0,-1,0,1187)"><tspan
             id="tspan54"
             y="0"
             x="0">-</tspan></text>
</g><g
         transform="matrix(0.24,0,0,0.24,455.5562,-160.92)"
         id="g58"><text
           id="text62"
           style="font-variant:normal;font-weight:normal;font-size:75px;font-family:Calibri;-inkscape-font-specification:Calibri;writing-mode:lr-tb;fill:#000000;fill-opacity:1;fill-rule:nonzero;stroke:none"
           transform="matrix(1,0,0,-1,0,1187)"><tspan
             id="tspan60"
             y="0"
             x="0 39.314999 76.830002 107.97 147.58501 183 222.61501 239.80499 264.79501 281.98499 321.60001">Recognition</tspan></text>
</g><g
         transform="matrix(0.24,0,0,0.24,373.6612,-180.84)"
         id="g64"><text
           id="text68"
           style="font-variant:normal;font-weight:normal;font-size:54.16666031px;font-family:DengXian;-inkscape-font-specification:DengXian;writing-mode:lr-tb;fill:#000000;fill-opacity:1;fill-rule:nonzero;stroke:none"
           transform="matrix(1,0,0,-1,0,1187)"><tspan
             id="tspan66"
             y="0"
             x="0 52.606659 105.21332 157.81998 210.42664 263.03329">作者：吴黄巍</tspan></text>
</g><g
         transform="matrix(0.24,0,0,0.24,452.2862,-180.84)"
         id="g70"><text
           id="text74"
           style="font-variant:normal;font-weight:normal;font-size:54.16666031px;font-family:DengXian;-inkscape-font-specification:DengXian;writing-mode:lr-tb;fill:#000000;fill-opacity:1;fill-rule:nonzero;stroke:none"
           transform="matrix(1,0,0,-1,0,1187)"><tspan
             id="tspan72"
             y="0"
             x="0 52.606659 105.21332">肖子霖</tspan></text>
</g><g
         transform="matrix(0.24,0,0,0.24,493.0362,-180.84)"
         id="g76"><text
           id="text80"
           style="font-variant:normal;font-weight:normal;font-size:54.16666031px;font-family:DengXian;-inkscape-font-specification:DengXian;writing-mode:lr-tb;fill:#000000;fill-opacity:1;fill-rule:nonzero;stroke:none"
           transform="matrix(1,0,0,-1,0,1187)"><tspan
             id="tspan78"
             y="0"
             x="0 52.606659 105.21332">范睿楠</tspan></text>
</g><g
         transform="matrix(0.24,0,0,0.24,315.7212,-198.84)"
         id="g82"><text
           id="text86"
           style="font-variant:normal;font-weight:normal;font-size:54.16666031px;font-family:Calibri;-inkscape-font-specification:Calibri;writing-mode:lr-tb;fill:#000000;fill-opacity:1;fill-rule:nonzero;stroke:none"
           transform="matrix(1,0,0,-1,0,1187)"><tspan
             id="tspan84"
             y="0"
             x="0 25.523331 53.104992 65.086662">This</tspan></text>
</g><g
         transform="matrix(0.24,0,0,0.24,339.2212,-198.84)"
         id="g88"><text
           id="text92"
           style="font-variant:normal;font-weight:normal;font-size:54.16666031px;font-family:Calibri;-inkscape-font-specification:Calibri;writing-mode:lr-tb;fill:#000000;fill-opacity:1;fill-rule:nonzero;stroke:none"
           transform="matrix(1,0,0,-1,0,1187)"><tspan
             id="tspan90"
             y="0"
             x="0 27.603331 44.969162 72.572495 100.17582 127.77915 150.18248">product</tspan></text>
</g><g
         transform="matrix(0.24,0,0,0.24,382.3912,-198.84)"
         id="g94"><text
           id="text98"
           style="font-variant:normal;font-weight:normal;font-size:54.16666031px;font-family:Calibri;-inkscape-font-specification:Calibri;writing-mode:lr-tb;fill:#000000;fill-opacity:1;fill-rule:nonzero;stroke:none"
           transform="matrix(1,0,0,-1,0,1187)"><tspan
             id="tspan96"
             y="0"
             x="0 11.981666">is</tspan></text>
</g><g
         transform="matrix(0.24,0,0,0.24,393.1412,-198.84)"
         id="g100"><text
           id="text104"
           style="font-variant:normal;font-weight:normal;font-size:54.16666031px;font-family:Calibri;-inkscape-font-specification:Calibri;writing-mode:lr-tb;fill:#000000;fill-opacity:1;fill-rule:nonzero;stroke:none"
           transform="matrix(1,0,0,-1,0,1187)"><tspan
             id="tspan102"
             y="0"
             x="0">o</tspan></text>
</g><g
         transform="matrix(0.24,0,0,0.24,399.7662,-198.84)"
         id="g106"><text
           id="text110"
           style="font-variant:normal;font-weight:normal;font-size:54.16666031px;font-family:Calibri;-inkscape-font-specification:Calibri;writing-mode:lr-tb;fill:#000000;fill-opacity:1;fill-rule:nonzero;stroke:none"
           transform="matrix(1,0,0,-1,0,1187)"><tspan
             id="tspan108"
             y="0"
             x="0 27.603331 53.635826">pen</tspan></text>
</g><g
         transform="matrix(0.24,0,0,0.24,419.2662,-198.84)"
         id="g112"><text
           id="text116"
           style="font-variant:normal;font-weight:normal;font-size:54.16666031px;font-family:Calibri;-inkscape-font-specification:Calibri;writing-mode:lr-tb;fill:#000000;fill-opacity:1;fill-rule:nonzero;stroke:none"
           transform="matrix(1,0,0,-1,0,1187)"><tspan
             id="tspan114"
             y="0"
             x="0">-</tspan></text>
</g><g
         transform="matrix(0.24,0,0,0.24,423.1412,-198.84)"
         id="g118"><text
           id="text122"
           style="font-variant:normal;font-weight:normal;font-size:54.16666031px;font-family:Calibri;-inkscape-font-specification:Calibri;writing-mode:lr-tb;fill:#000000;fill-opacity:1;fill-rule:nonzero;stroke:none"
           transform="matrix(1,0,0,-1,0,1187)"><tspan
             id="tspan120"
             y="0"
             x="0">s</tspan></text>
</g><g
         transform="matrix(0.24,0,0,0.24,428.1412,-198.84)"
         id="g124"><text
           id="text128"
           style="font-variant:normal;font-weight:normal;font-size:54.16666031px;font-family:Calibri;-inkscape-font-specification:Calibri;writing-mode:lr-tb;fill:#000000;fill-opacity:1;fill-rule:nonzero;stroke:none"
           transform="matrix(1,0,0,-1,0,1187)"><tspan
             id="tspan126"
             y="0"
             x="0 27.603331 55.206661 72.680824 95.084152">ource</tspan></text>
</g><g
         transform="matrix(0.24,0,0,0.24,460.0812,-198.84)"
         id="g130"><text
           id="text134"
           style="font-variant:normal;font-weight:normal;font-size:54.16666031px;font-family:Calibri;-inkscape-font-specification:Calibri;writing-mode:lr-tb;fill:#000000;fill-opacity:1;fill-rule:nonzero;stroke:none"
           transform="matrix(1,0,0,-1,0,1187)"><tspan
             id="tspan132"
             y="0"
             x="0 27.603331 55.206661 82.80999 108.84248 127.07498 139.07832 156.76915 184.37248">under the</tspan></text>
</g><g
         transform="matrix(0.24,0,0,0.24,513.4561,-198.84)"
         id="g136"><text
           id="text140"
           style="font-variant:normal;font-weight:normal;font-size:54.16666031px;font-family:Calibri;-inkscape-font-specification:Calibri;writing-mode:lr-tb;fill:#0563c1;fill-opacity:1;fill-rule:nonzero;stroke:none"
           transform="matrix(1,0,0,-1,0,1187)"><tspan
             id="tspan138"
             y="0"
             x="0 33.334164 60.439159">GPL</tspan></text>
</g><path
         id="path142"
         style="fill:#0563c1;fill-opacity:1;fill-rule:evenodd;stroke:none"
         d="m 513.8512,82.96253 h 72 v 1 h -72 z" /><g
         transform="matrix(0.24,0,0,0.24,532.8511,-198.84)"
         id="g144"><text
           id="text148"
           style="font-variant:normal;font-weight:normal;font-size:54.16666031px;font-family:Calibri;-inkscape-font-specification:Calibri;writing-mode:lr-tb;fill:#0563c1;fill-opacity:1;fill-rule:nonzero;stroke:none"
           transform="matrix(1,0,0,-1,0,1187)"><tspan
             id="tspan146"
             y="0"
             x="0 23.957914">v3</tspan></text>
</g><g
         transform="matrix(0.24,0,0,0.24,547.8511,-198.84)"
         id="g150"><text
           id="text154"
           style="font-variant:normal;font-weight:normal;font-size:54.16666031px;font-family:Calibri;-inkscape-font-specification:Calibri;writing-mode:lr-tb;fill:#0563c1;fill-opacity:1;fill-rule:nonzero;stroke:none"
           transform="matrix(1,0,0,-1,0,1187)"><tspan
             id="tspan152"
             y="0"
             x="0 22.397913 34.395828 56.793743 82.820824 110.41874 131.24582">License</tspan></text>
</g><g
         transform="matrix(0.24,0,0,0.24,585.6012,-198.84)"
         id="g156"><text
           id="text160"
           style="font-variant:normal;font-weight:normal;font-size:54.16666031px;font-family:Calibri;-inkscape-font-specification:Calibri;writing-mode:lr-tb;fill:#000000;fill-opacity:1;fill-rule:nonzero;stroke:none"
           transform="matrix(1,0,0,-1,0,1187)"><tspan
             id="tspan158"
             y="0"
             x="0 13.541665">. </tspan></text>
</g><path
         id="path162"
         style="fill:#0563c1;fill-opacity:1;fill-rule:evenodd;stroke:none"
         d="m 305.8512,64.96253 h 146 146 v -1 h -146 -146 z" /><g
         transform="matrix(0.24,0,0,0.24,306.3462,-217.8)"
         id="g164"><text
           id="text168"
           style="font-variant:normal;font-weight:normal;font-size:54.16666031px;font-family:Calibri;-inkscape-font-specification:Calibri;writing-mode:lr-tb;fill:#0563c1;fill-opacity:1;fill-rule:nonzero;stroke:none"
           transform="matrix(1,0,0,-1,0,1187)"><tspan
             id="tspan166"
             y="0"
             x="0 27.126663 44.069996 61.77166 89.11499 109.95832 124.03082 144.33249 163.76749 188.78165 200.74164 218.44331 246.05746 273.67163 301.2858 314.81662 336.79745 364.41162 406.59662 426.89828 472.22495 490.46826 514.9408 526.90076 538.86078 550.82074 578.43494 606.04907 618.00909 643.51074 671.12494 691.42657 724.24072 748.22577 775.8399 801.88324">https://github.com/MrZilinXiao/Hyper</tspan></text>
</g><g
         transform="matrix(0.24,0,0,0.24,502.8012,-217.8)"
         id="g170"><text
           id="text174"
           style="font-variant:normal;font-weight:normal;font-size:54.16666031px;font-family:Calibri;-inkscape-font-specification:Calibri;writing-mode:lr-tb;fill:#0563c1;fill-opacity:1;fill-rule:nonzero;stroke:none"
           transform="matrix(1,0,0,-1,0,1187)"><tspan
             id="tspan172"
             y="0"
             x="0">-</tspan></text>
</g><g
         transform="matrix(0.24,0,0,0.24,506.6761,-217.8)"
         id="g176"><text
           id="text180"
           style="font-variant:normal;font-weight:normal;font-size:54.16666031px;font-family:Calibri;-inkscape-font-specification:Calibri;writing-mode:lr-tb;fill:#0563c1;fill-opacity:1;fill-rule:nonzero;stroke:none"
           transform="matrix(1,0,0,-1,0,1187)"><tspan
             id="tspan178"
             y="0"
             x="0 21.39583 46.908329 74.533325 86.504158">Table</tspan></text>
</g><g
         transform="matrix(0.24,0,0,0.24,533.6862,-217.8)"
         id="g182"><text
           id="text186"
           style="font-variant:normal;font-weight:normal;font-size:54.16666031px;font-family:Calibri;-inkscape-font-specification:Calibri;writing-mode:lr-tb;fill:#0563c1;fill-opacity:1;fill-rule:nonzero;stroke:none"
           transform="matrix(1,0,0,-1,0,1187)"><tspan
             id="tspan184"
             y="0"
             x="0">-</tspan></text>
</g><g
         transform="matrix(0.24,0,0,0.24,537.5611,-217.8)"
         id="g188"><text
           id="text192"
           style="font-variant:normal;font-weight:normal;font-size:54.16666031px;font-family:Calibri;-inkscape-font-specification:Calibri;writing-mode:lr-tb;fill:#0563c1;fill-opacity:1;fill-rule:nonzero;stroke:none"
           transform="matrix(1,0,0,-1,0,1187)"><tspan
             id="tspan190"
             y="0"
             x="0 27.706247 53.733326 75.697906 103.29582 128.29373 155.89165 167.88956 185.57498 197.57289 225.17081">Recognition</tspan></text>
</g><path
         id="path194"
         style="fill:#4472c4;fill-opacity:1;fill-rule:nonzero;stroke:none"
         d="m 92.567,83.82119 8e-5,149.22471 h -6 L 86.567,83.82119 Z m 6.00007,146.22471 -8.99999,18 -9,-18 z" /></g></g></svg>